<svg xmlns="http://www.w3.org/2000/svg" viewBox="0 0 512 512" width="512" height="512">
  <defs>
    <linearGradient id="bg" x1="0" y1="0" x2="1" y2="1">
      <stop offset="0%" stop-color="#7c3aed"/>
      <stop offset="100%" stop-color="#6d28d9"/>
    </linearGradient>
  </defs>
  <rect width="512" height="512" rx="96" fill="url(#bg)"/>
  <!-- Chef Hat icon (Lucide ChefHat path scaled to center) -->
  <g transform="translate(128,110) scale(10.67)" fill="none" stroke="white" stroke-width="2" stroke-linecap="round" stroke-linejoin="round">
    <path d="M17 21a1 1 0 0 0 1-1v-5.35c0-.457.316-.844.727-1.041a4 4 0 0 0-2.646-7.502 6 6 0 0 0-11.162 0A4 4 0 0 0 2.273 14.609C2.684 14.806 3 15.193 3 15.65V20a1 1 0 0 0 1 1z"/>
    <path d="M7.5 17h9"/>
  </g>
</svg>
